<svg xmlns="http://www.w3.org/2000/svg" viewBox="0 0 480 360">
  <rect x="20" y="16" width="440" height="328" rx="44" fill="#E8F6EF"/>
  <g fill="#2F7D5B" opacity="0.13">
    <ellipse cx="82" cy="82" rx="11" ry="8"/>
    <circle cx="71" cy="68" r="4"/>
    <circle cx="82" cy="64" r="4"/>
    <circle cx="93" cy="68" r="4"/>
  </g>
  <g fill="#2F7D5B" opacity="0.13">
    <ellipse cx="404" cy="278" rx="11" ry="8"/>
    <circle cx="393" cy="264" r="4"/>
    <circle cx="404" cy="260" r="4"/>
    <circle cx="415" cy="264" r="4"/>
  </g>

  <!-- shoulders -->
  <path d="M162 340 c0 -44 34 -76 78 -76 s78 32 78 76 Z" fill="#245F46"/>
  <ellipse cx="240" cy="338" rx="26" ry="28" fill="#2F7D5B"/>

  <!-- ears -->
  <path d="M192 134 L182 84 L228 108 Z" fill="#245F46"/>
  <path d="M288 134 L298 84 L252 108 Z" fill="#245F46"/>
  <path d="M194 129 L188 99 L216 113 Z" fill="#2F7D5B"/>
  <path d="M286 129 L292 99 L264 113 Z" fill="#2F7D5B"/>

  <!-- head -->
  <circle cx="240" cy="190" r="76" fill="#245F46"/>
  <ellipse cx="214" cy="180" rx="11" ry="14" fill="#E8F6EF"/>
  <ellipse cx="266" cy="180" rx="11" ry="14" fill="#E8F6EF"/>
  <ellipse cx="214" cy="180" rx="5" ry="11" fill="#171717"/>
  <ellipse cx="266" cy="180" rx="5" ry="11" fill="#171717"/>
  <ellipse cx="240" cy="216" rx="28" ry="20" fill="#E8F6EF"/>
  <path d="M231 206 h18 l-9 10 Z" fill="#E8B87D"/>
  <path d="M240 217 v5 M240 222 c-6 7 -16 5 -19 -3 M240 222 c6 7 16 5 19 -3" fill="none" stroke="#245F46" stroke-width="3" stroke-linecap="round"/>
  <path d="M214 214 L186 208 M214 222 L188 225 M266 214 L294 208 M266 222 L292 225" fill="none" stroke="#E8F6EF" stroke-width="3" stroke-linecap="round"/>

  <!-- collar -->
  <path d="M192 274 q48 22 96 0" fill="none" stroke="#E8F6EF" stroke-width="13" stroke-linecap="round"/>
  <circle cx="240" cy="292" r="10" fill="#E8B87D"/>
</svg>
